<svg width="1200" height="760" viewBox="0 0 1200 760" fill="none" xmlns="http://www.w3.org/2000/svg">
  <rect width="1200" height="760" fill="#fafaf9"/>
  <path d="M0 0h1200v760H0z" fill="url(#grid)"/>
  <rect x="70" y="58" width="1060" height="64" rx="14" fill="#ffffff" stroke="#e4e4e7"/>
  <rect x="98" y="78" width="32" height="32" rx="8" fill="#0f766e"/>
  <rect x="137" y="82" width="120" height="24" rx="6" fill="#18181b"/>
  <rect x="760" y="82" width="88" height="24" rx="6" fill="#d4d4d8"/>
  <rect x="875" y="82" width="92" height="24" rx="6" fill="#d4d4d8"/>
  <rect x="995" y="76" width="90" height="36" rx="9" fill="#0f766e"/>
  <rect x="84" y="200" width="224" height="28" rx="14" fill="#ccfbf1" stroke="#99f6e4"/>
  <rect x="84" y="254" width="460" height="60" rx="10" fill="#18181b"/>
  <rect x="84" y="332" width="410" height="22" rx="7" fill="#71717a"/>
  <rect x="84" y="368" width="340" height="22" rx="7" fill="#a1a1aa"/>
  <rect x="84" y="436" width="152" height="48" rx="10" fill="#0f766e"/>
  <rect x="252" y="436" width="152" height="48" rx="10" fill="#ffffff" stroke="#d4d4d8"/>
  <rect x="612" y="178" width="500" height="442" rx="18" fill="#ffffff" stroke="#d4d4d8"/>
  <rect x="638" y="202" width="448" height="52" rx="10" fill="#f4f4f5"/>
  <rect x="666" y="224" width="150" height="12" rx="4" fill="#18181b"/>
  <circle cx="1010" cy="228" r="18" fill="#18181b"/>
  <circle cx="1038" cy="228" r="18" fill="#0f766e"/>
  <circle cx="1066" cy="228" r="18" fill="#f59e0b"/>
  <g>
    <rect x="638" y="282" width="136" height="270" rx="12" fill="#f4f4f5" stroke="#e4e4e7"/>
    <rect x="656" y="304" width="66" height="10" rx="4" fill="#71717a"/>
    <rect x="656" y="338" width="100" height="68" rx="10" fill="#ffffff" stroke="#e4e4e7"/>
    <rect x="668" y="352" width="54" height="16" rx="5" fill="#ccfbf1"/>
    <rect x="668" y="380" width="70" height="10" rx="4" fill="#18181b"/>
    <rect x="656" y="420" width="100" height="68" rx="10" fill="#ffffff" stroke="#e4e4e7"/>
  </g>
  <g>
    <rect x="800" y="282" width="136" height="270" rx="12" fill="#f4f4f5" stroke="#e4e4e7"/>
    <rect x="818" y="304" width="84" height="10" rx="4" fill="#71717a"/>
    <rect x="818" y="338" width="100" height="68" rx="10" fill="#ffffff" stroke="#e4e4e7"/>
    <rect x="830" y="352" width="42" height="16" rx="5" fill="#fef3c7"/>
    <rect x="830" y="380" width="66" height="10" rx="4" fill="#18181b"/>
  </g>
  <g>
    <rect x="962" y="282" width="136" height="270" rx="12" fill="#f4f4f5" stroke="#e4e4e7"/>
    <rect x="980" y="304" width="52" height="10" rx="4" fill="#71717a"/>
    <rect x="980" y="338" width="100" height="68" rx="10" fill="#ffffff" stroke="#e4e4e7"/>
    <rect x="992" y="352" width="46" height="16" rx="5" fill="#cffafe"/>
    <rect x="992" y="380" width="58" height="10" rx="4" fill="#18181b"/>
  </g>
  <defs>
    <pattern id="grid" width="36" height="36" patternUnits="userSpaceOnUse">
      <path d="M36 0H0v36" stroke="#e7e5e4" stroke-width="1"/>
    </pattern>
  </defs>
</svg>
